/* XPM */
static char *result[] = {
/* columns rows colors chars-per-pixel */
"37 32 176 2 ",
"   c #000000",
".  c #0C0901",
"X  c #170200",
"o  c #160E01",
"O  c #191401",
"+  c #1F1802",
"@  c #000016",
"#  c #211D04",
"$  c #242106",
"%  c #2E2A09",
"&  c #3B380E",
"*  c #20211E",
"=  c #323139",
"-  c #7C0000",
";  c #5A4D0C",
":  c #5E571B",
">  c #6E5D11",
",  c #786614",
"<  c #4B4727",
"1  c #54503B",
"2  c #645D2C",
"3  c #000043",
"4  c #203345",
"5  c #830000",
"6  c #8B0000",
"7  c #930003",
"8  c #9B0000",
"9  c #940409",
"0  c #951205",
"q  c #991808",
"w  c #AF0000",
"e  c #B50000",
"r  c #BA0001",
"t  c #BC0D00",
"y  c #BA0209",
"u  c #BA090A",
"i  c #AB1B02",
"p  c #BC1400",
"a  c #BC1A02",
"s  c #9D2B09",
"d  c #9A2508",
"f  c #9D350D",
"g  c #9F3A0F",
"h  c #9F3D11",
"j  c #BD2405",
"k  c #BE2A06",
"l  c #BE2D08",
"z  c #B02204",
"x  c #A03A0F",
"c  c #B5370E",
"v  c #BF360C",
"b  c #BF3A0E",
"n  c #B63C0F",
"m  c #B53F10",
"M  c #C00000",
"N  c #C21E03",
"B  c #C32E08",
"V  c #C2360C",
"C  c #C13C0E",
"Z  c #C03E10",
"A  c #9F4319",
"S  c #A3450A",
"D  c #A04012",
"F  c #A0471A",
"G  c #A34A14",
"H  c #B74112",
"J  c #A95C1D",
"K  c #A85718",
"L  c #927B1A",
"P  c #B2650E",
"I  c #AC611B",
"U  c #B16519",
"Y  c #B46D15",
"T  c #BB781E",
"R  c #857A29",
"E  c #AE6D24",
"W  c #B16F24",
"Q  c #B27226",
"!  c #C14311",
"~  c #C24A15",
"^  c #C55B1D",
"/  c #C35118",
"(  c #C6611F",
")  c #C96A22",
"_  c #CB7326",
"`  c #CD7D2A",
"'  c #CB752A",
"]  c #9D851E",
"[  c #A78E1C",
"{  c #9D9233",
"}  c #AF9521",
"|  c #B89B23",
" . c #B49723",
".. c #A49835",
"X. c #B29A3D",
"o. c #BB9233",
"O. c #AEA239",
"+. c #CF802B",
"@. c #D0852D",
"#. c #D2882E",
"$. c #CD9724",
"%. c #D19D25",
"&. c #CD8D31",
"*. c #D98F31",
"=. c #D38B30",
"-. c #C59A36",
";. c #D59333",
":. c #D59B36",
">. c #CDAC25",
",. c #D4A224",
"<. c #DFA124",
"1. c #D6A628",
"2. c #DAAB29",
"3. c #CDB02D",
"4. c #DEB027",
"5. c #D6B62B",
"6. c #DAB92C",
"7. c #C7A537",
"8. c #DBA239",
"9. c #DEAD3E",
"0. c #D1AD3E",
"q. c #CDB638",
"w. c #CEBB3E",
"e. c #E1A527",
"r. c #E2A628",
"t. c #E5AE2D",
"y. c #E2B52C",
"u. c #E8BC2C",
"i. c #E7B430",
"p. c #E1B13E",
"a. c #E3B931",
"s. c #E6C12F",
"d. c #E9C132",
"f. c #F2CB32",
"g. c #F1CB3D",
"h. c #F9D233",
"j. c #FFDC35",
"k. c #FCDA3B",
"l. c #FFE234",
"z. c #FFE438",
"x. c #FFEB3A",
"c. c #CBB441",
"v. c #C4B641",
"b. c #D6B642",
"n. c #DDBC44",
"m. c #E3B641",
"M. c #E8B641",
"N. c #E5BB44",
"B. c #CFC045",
"V. c #D1C346",
"C. c #D6CA4A",
"Z. c #DEC849",
"A. c #E2C245",
"S. c #E9C447",
"D. c #EAC648",
"F. c #E9CF4C",
"G. c #E7C846",
"H. c #EBD24D",
"J. c #E3D34E",
"K. c #F2D44D",
"L. c #F2D240",
"P. c #E5D551",
"I. c #EDDC54",
"U. c #F5DB51",
"Y. c #FEE54B",
"T. c #FEE649",
"R. c #F3E354",
"E. c #FBE554",
"W. c #FCE956",
"Q. c #FFEE58",
"!. c #F4E558",
"~. c #FFF454",
"^. c #FFF35A",
"/. c #FFFB5D",
"(. c #FFFF61",
"). c None",
/* pixels */
").).).).).).).# $ o X X X X X X X X # # # X X X X X X X X X # $ ).).).).).",
").).).).).).).                .                       .         ).).).).).",
").).).).).. : V.C.E 8 x s s s s h 8 o.C.q.s s s s s s x x h c.Z.{   ).).).",
").).).).).  & ^.(.*.M ! V V C V N r M.(.W.V V C C V V B M M W.(.O.    ).).",
").).).).R O.O.N.S._ a v v v v l ;.8.9.S.n.v v v v v j ( 8.:.n.A.7.[ ] ).).",
").).%   ../.W.k e l v v v v b a U./.9.e p v V v v Z r =./.^.E - 2.x.6.  # ",
").).%   { ^.R./ v v v v v v b a K.^.m.r ! v v v v b r @.^.W.W 6 2.z.5.  + ",
").).%   { ^.E.~ v b v v v v Z a K./.p.r Z v v v v ! r #.^.W.W 6 2.z.5.  + ",
").).#   { /.R.~ l v V v v v v t K./.p.r ! v v V v b r +.^.^.Q 6 2.z.5.  # ",
"$   v.!.N.) _ C v v v b a ) K.U.:._ ^ k v v v C r 9.E.G.E Q G 7 2.z.5.  + ",
"$   C./.D.e j v V V v C a ) ^.^.` e v v v v V ! r N./.H.6 7 9 5 1.z.5.  + ",
"+   B./.S.p ~ Z C H b ! k ) W.^.@.j ~ b C Z H ! r m./.F.q h $.%.d.z.5.  + ",
"$   B./.S.e p r r r r t r ^ W.^._ r t r r r r a e p./.F.6 9 h.x.j.j.6.  + ",
"#   B./.F.` #.+.@.@.+.@.` :.W.Q.8.` @.@.+.+.@.#._ S./.K.Y T y.u.f.j.6.  + ",
"#   V.^.Q.^.^.^.^.^.^.^.^.^.Q.Q.^.^.^.^.^.^.^.^.^.^.Q.W.j.j.U 5 2.z.5.  + ",
"$   B.^.W.W.E.W.W.W.E.W.Q.W.W.W.W.Q.W.W.W.W.E.W.W.W.^.Y.h.h.U 6 2.z.5.  + ",
"#   3.x.a.A J J K E h 7.^.R.2 < P./.b.h E K K J A 2.z.d.D K h 7 2.l.5.  + ",
"+   >.l.4.6 d 0 0 s 5 -./.I.* @ J./.0.6 d 0 0 d 5 ,.l.u.7 d f 7 2.z.5.  + ",
"#   w.~.A.e m c c m e 8.^.I.1 = P./.9.w m c c H w p.~.G.7 f f 6 2.z.5.  + ",
"#   V./.S.r Z V V Z r 8./.!.4 3 P./.m.r ! V C C y m./.H.7 f f 9 2.z.5.  + ",
"#   B./.D.r b v v b t ` A.b.X.X.b.Z.&.r b v V C e m./.F.7 f f 7 2.z.5.  + ",
"#   B./.D.r ! v v v b z 5 S j.l.P 5 i C v v V ! r p./.F.7 f f 7 2.z.5.  + ",
"#   B./.S.y Z v v v v m s U k.k.Q q m V v v v H r m./.F.7 f f 7 2.l.5.  + ",
"#   B./.S.r Z v v v v b p ) W.^.@.r b C v v v ! e m./.F.7 f h 7 2.z.5.  + ",
"#   B./.D.r ! v v v v b a ( W.^.` r b v v C V H r m./.F.7 f s 6 2.z.6.  # ",
"$   B./.D.r ~ b b C ! ! k _ W.~.+.a ~ b C C C ! r N./.H.7 x y.f. ., , ).).",
"#   V.(.G.e y r e r y y e ^ Q.~.' e y r r r r u e n.^.F.5 9 h.x.}     ).).",
"+   q.Y.g.<.r.r.r.e.r.r.r.t.U.T.i.e.t.<.r.<.r.r.<.g.Y.L.,.1.| | L ).).).).",
"#   5.l.j.z.z.z.z.l.z.z.z.z.j.j.l.z.z.z.z.z.z.z.z.l.j.j.z.z.;   ).).).).).",
"O   } s.6.6.6.6.6.6.6.6.6.6.6.6.6.6.6.6.6.6.6.6.6.6.6.6.6.6.>   ).).).).).",
"  .                                                         ).).).).).).).",
"    o O O O O O O O O O O O O O O O O O O O O O O O O O O O ).).).).).).)."
};
