/* XPM */
static char *result[] = {
/* columns rows colors chars-per-pixel */
"32 32 100 2 ",
"   c #5A3C33",
".  c #5A3D34",
"X  c #5B3D34",
"o  c #5B3E35",
"O  c #5C3E34",
"+  c #5C3E35",
"@  c #5D3E35",
"#  c #5D3F35",
"$  c #5D4037",
"%  c #5E4036",
"&  c #5E4037",
"*  c #5F4137",
"=  c #5F4138",
"-  c #5F433A",
";  c #5F433B",
":  c #604239",
">  c #60433B",
",  c #60443B",
"<  c #61443B",
"1  c #61453C",
"2  c #61453D",
"3  c #61463D",
"4  c #62463D",
"5  c #62463E",
"6  c #62473E",
"7  c #63473E",
"8  c #63473F",
"9  c #64473E",
"0  c #63483F",
"q  c #65493F",
"w  c #674B43",
"e  c #674C43",
"r  c #674C44",
"t  c #684C43",
"y  c #684D44",
"u  c #684D45",
"i  c #694F46",
"p  c #6A4F47",
"a  c #754F41",
"s  c #754F42",
"d  c #6A5047",
"f  c #765042",
"g  c #765143",
"h  c #775244",
"j  c #775345",
"k  c #775346",
"l  c #775347",
"z  c #775447",
"x  c #785446",
"c  c #785447",
"v  c #795447",
"b  c #795547",
"n  c #785448",
"m  c #785548",
"M  c #795548",
"N  c #7A5548",
"B  c #795648",
"V  c #795649",
"C  c #7A5648",
"Z  c #7A5649",
"A  c #7A574A",
"S  c #7A584B",
"D  c #7B584B",
"F  c #7A584C",
"G  c #7B584C",
"H  c #7C594D",
"J  c #7C5A4D",
"K  c #7F5E53",
"L  c #7F5F53",
"P  c #805F54",
"I  c #806054",
"U  c #806055",
"Y  c #826358",
"T  c #85665B",
"R  c #9D837A",
"E  c #9D837B",
"W  c #9D847A",
"Q  c #9D847B",
"!  c #9D847C",
"~  c #9D857C",
"^  c #9E857C",
"/  c #9F857C",
"(  c #9E867D",
")  c #9F867D",
"_  c #A0867D",
"`  c #A0877E",
"'  c #A1877E",
"]  c #A1887E",
"[  c #A1887F",
"{  c #A18880",
"}  c #A18980",
"|  c #A28980",
" . c #A28981",
".. c #A28A81",
"X. c #A38A81",
"o. c #A38B82",
"O. c #B8A59F",
"+. c #B8A6A0",
"@. c #B9A6A0",
"#. c #BAA8A2",
/* pixels */
"M M M M M n % 0 Q X.#.#.U h V M M M M M M n % 8 Q X.#.#.U h V M ",
"M M M M M c % 8 Q ..O.O.P h V M M M M M M c % 8 Q ..O.O.P h V M ",
"M M M M N m % 7 ^ ' T U A M M M M M M M N m % 7 ^ ' T U A M M M ",
"n n n n m z & 8 ^ ` S a m m n n n m n n m z & 8 ^ ` D a m m n n ",
"& & & & & *   4 ^ ` e # = & & & & & & & & *   4 ^ ` e # = & & & ",
"4 4 5 5 3 4 , r ^ ` i - 5 3 3 3 4 4 5 5 3 4 , r ^ ` i - 5 3 3 3 ",
"Q Q E R ^ ^ ~ ^ [ { ^ ^ ^ ^ ^ ^ Q Q E W ^ ^ ~ ^ [ } ^ ^ ^ ^ ^ ^ ",
"| | o.o.` _ _ _ / / _ _ _ _ ( ) | | o.o.` _ _ _ / / _ _ _ _ ) ( ",
"` } @.@.Y Z J H H H H H H G 9 u Q ..@.@.Y Z J H H H H H H F q 6 ",
"' | @.+.K g c x x x x x c k O 3 Q X.+.+.K f c x x x x x c j % . ",
"[ ` T I A M Z Z C B B M Z m & 8 ^ ' T I A M Z C Z B B M Z m : $ ",
"[ ) G a m m n m n n n n m z & 8 ^ ` S a m m n n n n n n m l : $ ",
"[ ) t @ * & & & & & & & & *   4 ^ ` w @ * & & & & & & & & % + o ",
"[ ) p - 5 3 3 3 4 4 5 5 3 4 < r ^ ` i - 5 3 2 3 4 4 5 5 3 3 4 4 ",
"} [ ^ ^ ^ ^ ^ ^ Q Q R R ^ ^ ^ ^ [ } ^ ^ ^ ^ ^ ^ Q Q R R ^ ^ ^ ^ ",
"/ / _ _ _ _ ) ) | | o.o.` _ _ _ / / _ _ _ _ ( ) | | o.o.` _ _ _ ",
"H H H H H G 7 u Q  .@.@.Y Z J H H H H H H G 7 u Q  .@.@.Y Z J H ",
"x x x x c k O 3 Q ..+.+.K g b c x x x x c k O 3 Q X.+.+.L g b x ",
"V V B M Z m & 8 ^ ' T I A M Z Z Z Z B M Z m & 8 ^ ' T U A M Z Z ",
"m m m n m z & 8 ^ ` D s m m m m m m m n m z & 8 ^ ` D s m m n m ",
"& & & & & *   4 ^ ` w # = & & & & & & & & *   4 ^ ` e # = & & & ",
"4 4 5 5 3 4 , r ^ ` i - 5 3 2 3 4 4 5 5 3 4 , r ^ ` i - 5 3 3 2 ",
"Q Q Q E ^ ^ ~ ^ [ [ ^ ^ ^ ^ ^ ^ Q Q Q Q ^ ^ ~ ^ [ { ^ ^ ^ ^ ^ ^ ",
"| | o.o.` ) _ _ / / _ _ _ _ ( ) | | o.o.` ) _ _ / / ) _ _ _ ) ( ",
"` } @.@.Y Z J H H H H H H G 7 u Q ..@.@.Y Z J H H H H H H F q 6 ",
"' | @.+.L g v x x x x x c k O 3 Q X.+.+.K f v x x x x x c j % X ",
"[ ` T I A M Z B B B B M Z m & 8 ^ ] T I A M Z B B B B M Z n : $ ",
"[ ) G a m m n m m n n n m z & 8 ^ ` S a m m n m n n n n m l : $ ",
"[ ) t @ = & & & & & & & & *   4 ^ ` w @ = & & & & & & & & & + o ",
"[ ) d > 6 4 4 4 4 4 4 4 4 6 1 y ^ ` p ; 6 4 4 4 4 4 4 4 4 4 6 6 ",
"[ [ ! Q Q Q Q Q Q Q Q Q Q Q Q Q [ [ ! Q Q Q Q Q Q Q Q Q Q Q Q Q ",
"[ [ | | | | | | | | | | | | | | [ [ | | | | | | | | | | | | | | "
};
