/* XPM */
static char *result[] = {
/* columns rows colors chars-per-pixel */
"16 16 244 2 ",
"   c #120000",
".  c #171C1C",
"X  c #1D181F",
"o  c #230400",
"O  c #2A0000",
"+  c #2F0000",
"@  c #320003",
"#  c #350000",
"$  c #370000",
"%  c #3F0000",
"&  c #3C1111",
"*  c #37171E",
"=  c #3A1719",
"-  c #261F25",
";  c #262623",
":  c #2C2E2E",
">  c #2F2E2E",
",  c #37292B",
"<  c #352A2B",
"1  c #362A2D",
"2  c #372B2D",
"3  c #332C2D",
"4  c #332D2D",
"5  c #322E2E",
"6  c #342F2E",
"7  c #3A292A",
"8  c #34302F",
"9  c #3A302F",
"0  c #292F30",
"q  c #353434",
"w  c #363534",
"e  c #363535",
"r  c #3B3230",
"t  c #3D3939",
"y  c #3C3A39",
"u  c #430000",
"i  c #440000",
"p  c #450000",
"a  c #4D0000",
"s  c #4E0000",
"d  c #42000E",
"f  c #550000",
"g  c #590000",
"h  c #5C0000",
"j  c #5D0000",
"k  c #5F0600",
"l  c #570D0C",
"z  c #44150F",
"x  c #48180F",
"c  c #591400",
"v  c #5C1D08",
"b  c #470217",
"n  c #511B17",
"m  c #531E1A",
"M  c #640000",
"N  c #660000",
"B  c #4B271D",
"V  c #532316",
"C  c #512417",
"Z  c #552716",
"A  c #5F281A",
"S  c #6F260E",
"D  c #602617",
"F  c #632B19",
"G  c #6B2E1E",
"H  c #712E1B",
"J  c #72331F",
"K  c #471921",
"L  c #4F1F24",
"P  c #501F25",
"I  c #402B26",
"U  c #412C26",
"Y  c #4C222B",
"T  c #4F262F",
"R  c #532220",
"E  c #522025",
"W  c #562326",
"Q  c #582524",
"!  c #5C2625",
"~  c #522E25",
"^  c #5E2923",
"/  c #52272C",
"(  c #5F2928",
")  c #5E2D2B",
"_  c #452F30",
"`  c #403334",
"'  c #463434",
"]  c #4A3433",
"[  c #423834",
"{  c #443934",
"}  c #443935",
"|  c #453935",
" . c #483A37",
".. c #433B39",
"X. c #403C3A",
"o. c #443E3D",
"O. c #4E3B3A",
"+. c #493C38",
"@. c #4C3D39",
"#. c #4D3D3A",
"$. c #4C3C3C",
"%. c #672123",
"&. c #632B22",
"*. c #642B22",
"=. c #662C22",
"-. c #672D22",
";. c #672E23",
":. c #612A26",
">. c #632C25",
",. c #692E21",
"<. c #692F21",
"1. c #6A2F22",
"2. c #662F29",
"3. c #67282C",
"4. c #67282D",
"5. c #66292E",
"6. c #6E2C2B",
"7. c #682A2E",
"8. c #752C23",
"9. c #7C2F23",
"0. c #6F3221",
"q. c #6B3025",
"w. c #6F3226",
"e. c #643029",
"r. c #66312B",
"t. c #683229",
"y. c #6B352D",
"u. c #68362E",
"i. c #6E362C",
"p. c #6E382D",
"a. c #703320",
"s. c #733523",
"d. c #773620",
"f. c #763522",
"g. c #723525",
"h. c #733827",
"j. c #74302B",
"k. c #77322A",
"l. c #77322B",
"z. c #75352D",
"x. c #79332A",
"c. c #78332B",
"v. c #7B362B",
"b. c #7C3428",
"n. c #7D3629",
"m. c #7D362A",
"M. c #7F372A",
"N. c #78322D",
"B. c #79342E",
"V. c #7E372D",
"C. c #763A2A",
"Z. c #723F32",
"A. c #4B423F",
"S. c #4C403D",
"D. c #4F423C",
"F. c #4E433E",
"G. c #51433E",
"H. c #54433F",
"J. c #52443E",
"K. c #53443E",
"L. c #54453F",
"P. c #7F453F",
"I. c #3D5754",
"U. c #4A4441",
"Y. c #434A48",
"T. c #404C4A",
"R. c #544340",
"E. c #524540",
"W. c #574440",
"Q. c #5A4742",
"!. c #534844",
"~. c #564945",
"^. c #574D44",
"/. c #584942",
"(. c #584943",
"). c #5B4B44",
"_. c #584C44",
"`. c #594C44",
"'. c #584D44",
"]. c #405854",
"[. c #604040",
"{. c #644F47",
"}. c #614C48",
"|. c #6E5D55",
" X c #6E5F54",
".X c #685E5C",
"XX c #6F6155",
"oX c #67625D",
"OX c #716053",
"+X c #706054",
"@X c #716054",
"#X c #72635A",
"$X c #7D665E",
"%X c #7B6A5D",
"&X c #7C695C",
"*X c #7F6B5D",
"=X c #456E69",
"-X c #567572",
";X c #587671",
":X c #776B60",
">X c #872700",
",X c #8B3F27",
"<X c #8D3E26",
"1X c #813828",
"2X c #823929",
"3X c #83392B",
"4X c #863D2B",
"5X c #81382C",
"6X c #813B2D",
"7X c #81392E",
"8X c #843B2E",
"9X c #8A3E28",
"0X c #8C3F2C",
"qX c #8E4027",
"wX c #8D402A",
"eX c #924229",
"rX c #954A34",
"tX c #856E60",
"yX c #8C7566",
"uX c #857569",
"iX c #867468",
"pX c #847669",
"aX c #917F6F",
"sX c #61827D",
"dX c #65837D",
"fX c #9F8574",
"gX c #A18876",
"hX c #2E9994",
"jX c #49B0AA",
"kX c #808F89",
"lX c #908680",
"zX c #9F9080",
"xX c #AA9785",
"cX c #AC9886",
"vX c #B29B88",
"bX c #B09C8A",
"nX c #8BA49E",
"mX c #94A69F",
"MX c #8DA7A1",
"NX c #93B2AB",
"BX c #86BBB4",
"VX c #87BBB4",
"CX c #AFACA6",
"ZX c None",
/* pixels */
"ZXfXxXzXiX7 Q. .W.@.] uXpXvXgXZX",
"yXcX|._ ` : q 6 w > e 2 O.#XaXtX",
"bX5 1 ; B V F = A C D ~ I , X cX",
":X' U G 2Xf.eX! 3Xf.5X,.<X. R.8 ",
"- X.s.w.j.0.2Xa.n.<.6.^ V.Z < r ",
"H.s >XS 7.-.M.d.l.&.5./ N.r.e.~.",
"T.dX$X{.%.>.c.1.k.;.9.u R g u.0 ",
"].BXnX;XM t.3.P v.H Z.hXjX=Xl !.",
"t o $ f z.*.4.E 4Xh .XNXkXMXO U.",
"S.y.P.p.b.0.x.=.qXY h lXCX[.K E.",
"o.& j k 6XJ 9X-.m.L B.p i b T ..",
"I.VXmX-XN h.,X-.x.Q 1XC.rXW ) F.",
"T.sXoXY.8.2.7Xq.8X:.0Xg.wX( i.y ",
"9 % a + m # d z c x v @ n   * G.",
"}.A.XX&X^.@X+X'.%X_. XOX^.*X`.$.",
"4 #.K.(.| J.K.} ).{ L.D.+./.[ 3 "
};
