/* XPM */
static char *result[] = {
/* columns rows colors chars-per-pixel */
"32 32 85 1 ",
"  c #7BB240",
". c #7BB340",
"X c #7BB341",
"o c #7CB341",
"O c #7CB342",
"+ c #7CB343",
"@ c #7DB343",
"# c #7CB441",
"$ c #7CB442",
"% c #7DB442",
"& c #7DB542",
"* c #7DB443",
"= c #7EB443",
"- c #7EB543",
"; c #7DB444",
": c #7EB444",
"> c #7EB544",
", c #7FB544",
"< c #7EB445",
"1 c #7EB545",
"2 c #7FB545",
"3 c #7FB645",
"4 c #7FB546",
"5 c #7FB646",
"6 c #80B645",
"7 c #80B646",
"8 c #80B647",
"9 c #81B747",
"0 c #80B648",
"q c #81B648",
"w c #81B748",
"e c #82B749",
"r c #82B849",
"t c #89C148",
"y c #89C149",
"u c #8AC149",
"i c #89C248",
"p c #8AC248",
"a c #8AC249",
"s c #8AC349",
"d c #8BC349",
"f c #8AC14A",
"g c #8AC24A",
"h c #8BC24A",
"j c #8BC34A",
"k c #8AC24B",
"l c #8BC24B",
"z c #8BC34B",
"x c #8CC34A",
"c c #8CC34B",
"v c #8CC44B",
"b c #8BC24C",
"n c #8BC34C",
"m c #8CC34C",
"M c #8CC34D",
"N c #8CC44C",
"B c #8CC44D",
"V c #8DC44D",
"C c #8DC44E",
"Z c #8EC44E",
"A c #8EC44F",
"S c #97C860",
"D c #98C961",
"F c #99C961",
"G c #99CA61",
"H c #99C962",
"J c #99CA62",
"K c #99CA63",
"L c #9ACA62",
"P c #9ACB62",
"I c #9ACA63",
"U c #9ACB63",
"Y c #9BCB63",
"T c #9BCC63",
"R c #9ACA64",
"E c #9ACB64",
"W c #9BCB64",
"Q c #9BCB65",
"! c #9CCB65",
"~ c #9BCC64",
"^ c #9CCC64",
"/ c #9CCC65",
"( c #9CCC66",
") c #9DCC66",
"_ c #9DCD66",
/* pixels */
"/~BzW/cz~Q4XyNY(/^Bsjjdm~/Bsjjjj",
"/WmhLUMmUI8*gVLWWUCjhhdmUYCjggzz",
"/W9%2qJLw8SIYJe448DP3%gg58FP6,FY",
"/W8o+2KI*OJ/WK2Xo*JW8*gg*:HE<*J/",
"/~buGHw<OOlm74yaagmCFJmcJHw:O%bV",
"WUCN^W2o**gz%%lNjjpgUWllYW8O*-ad",
"mVJW/YbtygLYbhPPcp-*nm--zVJIltjj",
"ajP~/WZNNVPYNcUUCz-%tyOOtgPTCcNm",
"jjzVY(WWWUAcjjzVUYmt-OOOO*kVP~YY",
"ghjmJW~~QYmpjjjmUWBa>@;;@:tcL!//",
"%>FUe5Mm72*-tcPJw2*,SIJJIJVa60I(",
"@1HI<.aa=+O*gVYI>XO>I_^^!WVa-1J^",
"IHe:O$tmJIbgPUCcggtgYWAl32yzFJCm",
"_W7X:2gVY~BzLIMjjjcVPUci>;gVU~Vj",
"/WbgDIWPVzjh38LYzjLYANjmJW~UCMPW",
"WUCVW(~PVzgyo*HIVmPYlijmLWWIVmP~",
"cBP~/WCVUU7oOO*8JYCh>*aa2<;4HYVz",
"jmLQWUczYW8O:;O2IWVa=*ll%OO1I^Mj",
"YJr147ajNCDIJHID05DUkgLPgfDI//YY",
"(W5.o%lmahP////I2;J^VNYYVNP!WWWW",
"/WntalPJ3*lVYWCVJICNPUCCPIw>mm5<",
"WUZcjN~W2%gNPUzzY~VcLIzjYW8*yy>*",
"cBLYcjWWlaPYCcjjcMPUq>gxcMGH2>DW",
"zmPWCBPPVNJICzjjzmJK2#ygzm~!04L/",
"WUCmPYCVUU81JYzzUUw>fg%2J^//EJCz",
"/WVzUWzhUR4;I/MmYW2.ag*4J!WW/~Bj",
"mVPLe1--18SI//YPAm-O$,DDq4bZY/YY",
"jcLI2 OOO<J/WWQIcp-@@4UU:otcJW~/",
"WLe1yyO:DICzNn32gjtgFJCmaujh75bN",
"^U5ozm&2I~Cjcl>>ajcVYYcaNNja%%gc",
"mmalJPlamVGWYYIJcjGUCmjmPUBsalLW",
"ddjvW/NjszY)//)~mjW/madmW/VdjNW)"
};
