/* XPM */
static char *result[] = {
/* columns rows colors chars-per-pixel */
"30 32 187 2 ",
"   c #000000",
".  c #0C0404",
"X  c #050C06",
"o  c #160605",
"O  c #161409",
"+  c #1C1816",
"@  c #09091D",
"#  c #270000",
"$  c #24001D",
"%  c #2D1D19",
"&  c #32190E",
"*  c #282401",
"=  c #342600",
"-  c #29281C",
";  c #33211B",
":  c #302214",
">  c #000034",
",  c #1C0B29",
"<  c #182629",
"1  c #3A2520",
"2  c #362A24",
"3  c #3D3A29",
"4  c #373C3B",
"5  c #5B1503",
"6  c #4C301F",
"7  c #422D25",
"8  c #4A352D",
"9  c #53392A",
"0  c #483433",
"q  c #543C34",
"w  c #513F38",
"e  c #5A3D36",
"r  c #675F1E",
"t  c #6A5900",
"y  c #706108",
"u  c #4A4632",
"i  c #5C443C",
"p  c #504A36",
"a  c #4C4623",
"s  c #60482D",
"d  c #66463B",
"f  c #6A4B3E",
"g  c #674838",
"h  c #786B39",
"j  c #726523",
"k  c #00004E",
"l  c #00005C",
"z  c #000055",
"x  c #151F59",
"c  c #19266D",
"v  c #2D3166",
"b  c #4A384F",
"n  c #5D4340",
"m  c #5A5C52",
"M  c #674B42",
"N  c #704E44",
"B  c #6B5647",
"V  c #70574E",
"C  c #74584E",
"Z  c #755347",
"A  c #6B4D53",
"S  c #664951",
"D  c #755C52",
"F  c #7C5D51",
"G  c #715254",
"H  c #69654C",
"J  c #746B4E",
"K  c #7F7148",
"L  c #776E52",
"P  c #747054",
"I  c #664B65",
"U  c #684E67",
"Y  c #6C506B",
"T  c #5E6162",
"R  c #636565",
"E  c #6B6B6B",
"W  c #606A6B",
"Q  c #786F6C",
"!  c #B50000",
"~  c #B90004",
"^  c #AF2F08",
"/  c #BD3406",
"(  c #AE3715",
")  c #BC3F26",
"_  c #C03D0F",
"`  c #B2411F",
"'  c #977F1F",
"]  c #8E7517",
"[  c #BE4C38",
"{  c #AF4628",
"}  c #C35814",
"|  c #C76818",
" . c #C24833",
".. c #83665B",
"X. c #86685E",
"o. c #8C6C5D",
"O. c #806053",
"+. c #93735E",
"@. c #857B5D",
"#. c #8C6D62",
"$. c #846B62",
"%. c #8C7168",
"&. c #927266",
"*. c #97786B",
"=. c #987C73",
"-. c #92862E",
";. c #998E31",
":. c #9E9332",
">. c #AA9221",
",. c #B3A63A",
"<. c #B5A93D",
"1. c #D89835",
"2. c #DA9C24",
"3. c #D0AF29",
"4. c #D5B82C",
"5. c #DCA43A",
"6. c #DABA36",
"7. c #E2A32C",
"8. c #EED135",
"9. c #FCD735",
"0. c #F0C82B",
"q. c #FFE237",
"w. c #8A8061",
"e. c #988772",
"r. c #AB9E6D",
"t. c #A99F79",
"y. c #B2A57D",
"u. c #AEA47C",
"i. c #FFDF40",
"p. c #E9DB51",
"a. c #EFCA4A",
"s. c #FFED43",
"d. c #FDEB58",
"f. c #FFF65B",
"g. c #FFF95D",
"h. c #F9D976",
"j. c #000088",
"k. c #2F3C93",
"l. c #1F39A9",
"z. c #213AAA",
"x. c #2138A6",
"c. c #3545AD",
"v. c #2A40B1",
"b. c #3345B0",
"n. c #474EB2",
"m. c #5F5BB4",
"M. c #615CB4",
"N. c #2E4ACA",
"B. c #2E4CD1",
"V. c #364FD1",
"C. c #3D53D4",
"Z. c #4356D5",
"A. c #4B5CD8",
"S. c #4B58CB",
"D. c #5C67D7",
"F. c #827C8F",
"G. c #7A8282",
"H. c #868A8A",
"J. c #9C8A85",
"K. c #A28C84",
"L. c #AF9992",
"P. c #B8AC82",
"I. c #9CA2A2",
"U. c #B2B2B2",
"Y. c #C5B78C",
"T. c #C6B88D",
"R. c #C8BA8F",
"E. c #CBBD92",
"W. c #C5B5AF",
"Q. c #DBCC9B",
"!. c #D3C494",
"~. c #FEE495",
"^. c #EDDCA8",
"/. c #E7D6A4",
"(. c #FFECA5",
"). c #FEEDB6",
"_. c #F9E7B0",
"`. c #FFF3BA",
"'. c #FFF8BF",
"]. c #D7D7D7",
"[. c #D9D8D7",
"{. c gray85",
"}. c #D8D7D7",
"|. c #FFFDC2",
" X c #ECECEC",
".X c white",
"XX c None",
/* pixels */
"XXXXXXXX      XXXXXXXXXXXXXXXXXXXXXXXXXXXXXXXXXXXXXXXXXXXXXX",
"XXXXXXE H.Q E XXXXXXXXXXXXXXXXXXXXXXXXXXXXXXXXXXXXXXXXXXXXXX",
"XXXX  U..X X{.E   XXXXXXXXXXXXXXXXXXXXXXXXXXXXXXXXXXXXXXXXXX",
"XXXX  U..X X{.E   XXXXXXXXXXXXXXXXXXXXXXXXXXXXXXXXXXXXXXXXXX",
"XXXX  U..X X}.E   XXXX                XXXXXXXXXXXXXXXXXXXXXX",
"XXXX  U..X X].E   < 0 C V V V V V V D p             XXXXXXXX",
"XXXX  U..X X].R   < M *.&.&.&.&.&.&.*.M   . . X X     XXXXXX",
"XXXX  U..X X].R   $...#.#.#.#.#.%.#.#.X.......#.D   o XXXXXX",
"XXXX  U..X X].T   *.%.#.#.#.&.#...$.#.#.&.&.#.#.D   XXXXXXXX",
"XXXX  U..X X].T   #.#.#.#.#.&...  e &.#...N g     XXXXXXXXXX",
"XXXX  U..X X].T o K.*.V $.#.&...  w #.=.e.F d 7 ; XXXXXXXXXX",
"XXXX  U..X X].T 2 W.J.  F *.&...  i #.L.W.$.g Z d   . XXXXXX",
"XXXX  U..X X}.T . K.Q   8 n J C   2 M %.K.F g q 7 XXXXXXXXXX",
"XXXX  U..X X}.E   Z 9       f N 2 O   8 g f f     XXXXXXXXXX",
"XXXX  E I.H.G.4   $     y.Q.B       O .   1 7 XXXXXXXXXXXXXX",
"XXXX&           + p 3   Q.|.w.- B p - 3 u X   XXXXXXXXXXXXXX",
"  5 _ ` [  .[ # H ).R.  T.`.^./._.Y.  P.`.L   XXXXXXXXXXXXXX",
"  5 ^ ( ` ` { # m /.!.P Q.`.).).|./.L Y.^.L   XXXXXXXXXXXXXX",
"XXXXX           *   <.|.`.`.`.`.`.`.|.y.                  O ",
"XXXX  P P.u.t.a > j.M.!.R.T.R.R.T.T.!.@.  :.<.,.,.,.,.<.r   ",
"XXXX  y.'.`.(.h k D.z.                  @ p.f.f.g.g.g.f.;.  ",
"XXXX  y.'.(.~.j z S.N.x.z.z.z.z.l.l.z.c X p.d.5.1.1.a.g.-.  ",
"XXXX  y.(.~.h.y z S.C.Z.Z.Z.Z.Z.Z.Z.A.k.  p.d._ ! ! 5.f.-.  ",
"XXXXXXJ w.@.O.* , U U I I I I I I I Y 0   8.i.( ~ ! 7.s.'   ",
"XXXXXXXX        ; S A A A A S A A A C b k 6.0.| } } 3.9.]   ",
"XXXXXXXXXXXXXX  c Z.C.B.B.B.C.Z.B.B.B.V.Z.v t 9.9.q.3.  XXXX",
"XXXXXXXXXXXXXX  x z.n.M.M.m.c.c.M.m.M.n.b.l = 4.4.6.>.  XXXX",
"XXXXXXXXXXXXXXXXXX  s +.+.+.= = o.+.*.g   XXXX        XXXXXX",
"XXXXXXXXXXXXXXXXXX  q O.F D : & J Z N 9 XXXXXXXXXXXXXXXXXXXX",
"XXXXXXXXXXXXXXXXXX  8 N M d % + N e   XXXXXXXXXXXXXXXXXXXXXX",
"XXXXXXXXXXXXXXXXXXXX% ; d M ;   1 %       XXXXXXXXXXXXXXXXXX",
"XXXXXXXXXXXXXXXXXXXXXX  e N ;             XXXXXXXXXXXXXXXXXX"
};
